<svg width="440" height="110" viewBox="-1 -1 44 11" xmlns="http://www.w3.org/2000/svg" xmlns:xlink="http://www.w3.org/1999/xlink">
<rect fill="#333" x="-1" y="-1" width="44" height="11"/>
<g> <!-- p -->
	<path d="
		M 1.5 7.5
		v -3.75
		a 0.25 0.25 0 0 1 0.25 -0.25
		h 2.75
		a 1 1 0 0 1 0 2
		h -2.5
	" stroke="black" fill="transparent" stroke-linecap="round" stroke-width="3"/>
	<path d="
		M 1.5 7.5
		v -3.75
		a 0.25 0.25 0 0 1 0.25 -0.25
		h 2.75
		a 1 1 0 0 1 0 2
		h -2.5
	" stroke="white" fill="transparent" stroke-linecap="round"/>
</g>
<g> <!-- g -->
	<path d="
		M 7.5 7.5
		h 3
		a 1 1 0 0 0 1 -1
		v -2.75
		a 0.25 0.25 0 0 0 -0.25 -0.25
		h -2.75
		a 1 1 0 0 0 0 2
		h 2.5
	" stroke="black" fill="transparent" stroke-linecap="round" stroke-width="3"/>
	<path d="
		M 7.5 7.5
		h 3
		a 1 1 0 0 0 1 -1
		v -2.75
		a 0.25 0.25 0 0 0 -0.25 -0.25
		h -2.75
		a 1 1 0 0 0 0 2
		h 2.5
	" stroke="white" fill="transparent" stroke-linecap="round"/>
</g>
<g> <!-- a -->
	<path d="
		M 17 3.5
		h -2.5
		a 1 1 0 0 0 0 2
		h 3
		v -1.5
		a 0.5 0.5 0 0 0 -0.5 -0.5
	" stroke="black" fill="transparent" stroke-linecap="round" stroke-width="3"/>
	<path d="
		M 17 3.5
		h -2.5
		a 1 1 0 0 0 0 2
		h 3
		v -1.5
		a 0.5 0.5 0 0 0 -0.5 -0.5
	" stroke="white" fill="transparent" stroke-linecap="round"/>
</g>
<g> <!-- t -->
	<path d="
		M 19.5 3.5
		h 4
	" stroke="black" fill="transparent" stroke-linecap="round" stroke-width="3"/>
	<path d="
		M 21.5 3.5
		v 2
	" stroke="black" fill="transparent" stroke-linecap="round" stroke-width="3"/>
	<path d="
		M 19.5 3.5
		h 4
	" stroke="white" fill="transparent" stroke-linecap="round"/>
	<path d="
		M 21.5 3.5
		v 2
	" stroke="white" fill="transparent" stroke-linecap="round"/>
</g>
<g> <!-- t -->
	<path d="
		M 25.5 3.5
		h 4
	" stroke="black" fill="transparent" stroke-linecap="round" stroke-width="3"/>
	<path d="
		M 27.5 3.5
		v 2
	" stroke="black" fill="transparent" stroke-linecap="round" stroke-width="3"/>
	<path d="
		M 25.5 3.5
		h 4
	" stroke="white" fill="transparent" stroke-linecap="round"/>
	<path d="
		M 27.5 3.5
		v 2
	" stroke="white" fill="transparent" stroke-linecap="round"/>
</g>
<g> <!-- i -->
	<path d="
		M 31.5 3.5
		v 2
	" stroke="black" fill="transparent" stroke-linecap="round" stroke-width="3"/>
	<circle cx="31.5" cy="2" r="1.5" fill="black"/>
	<path d="
		M 31.5 3.5
		v 2
	" stroke="white" fill="transparent" stroke-linecap="round"/>
	<circle cx="31.5" cy="2" r="0.5" fill="white"/>
</g>
<g> <!-- c -->
	<path d="
		M 37.5 3.5
		h -3
		a 1 1 0 0 0 0 2
		h 3
	" stroke="black" fill="transparent" stroke-linecap="round" stroke-width="3"/>
	<path d="
		M 37.5 3.5
		h -3
		a 1 1 0 0 0 0 2
		h 3
	" stroke="white" fill="transparent" stroke-linecap="round"/>
</g>
</svg> 
